# xmcd CD database file
#
# Track frame offsets:
#	150
#	21279
#	40739
#	64106
#	83290
#	111465
#	133641
#	154778
#	178787
#	198390
#	222445
#	239397
#	262021
#	283482
#	298597
#
# Disc length: 4243 seconds
#
# Revision: 0
# Processed by: cddbd v1.5.2PL0 Copyright (c) Steve Scherf et al.
# Submitted via: CDex 1.51
#
DISCID=e510910f
DTITLE=Kenny G心之樂團 - 心之樂團
DYEAR=2000
DGENRE=Jazz
TTITLE0=Beazil
TTITLE1=Paradise
TTITLE2=Malibu Dream
TTITLE3=One More Time
TTITLE4=Spanish Night
TTITLE5=Seaside Jam
TTITLE6=7
TTITLE7=8
TTITLE8=All The Way
TTITLE9=Midnight Magic
TTITLE10=11
TTITLE11=12
TTITLE12=13
TTITLE13=14
TTITLE14=My Heart Will Go On
EXTD=YEAR: 2000
EXTT0=
EXTT1=
EXTT2=
EXTT3=
EXTT4=
EXTT5=
EXTT6=
EXTT7=
EXTT8=
EXTT9=
EXTT10=
EXTT11=
EXTT12=
EXTT13=
EXTT14=
PLAYORDER=
